<svg height="480" version="1.1" width="640" xmlns="http://www.w3.org/2000/svg" style="overflow: hidden; position: relative; top: -0.3125px;"><desc style="-webkit-tap-highlight-color: rgba(0, 0, 0, 0);">Created with Raphaël 2.0.1</desc><defs style="-webkit-tap-highlight-color: rgba(0, 0, 0, 0);"></defs><rect x="0" y="0" width="640" height="480" r="0" rx="0" ry="0" fill="#90caf9" stroke="none" style="-webkit-tap-highlight-color: rgba(0, 0, 0, 0);"></rect><rect x="148" y="343" width="307" height="23" r="5" rx="5" ry="5" fill="#e3f2fd" stroke="none" transform="matrix(1,0,0,1,-153.5,-11.5)" stroke-width="0" opacity="0.2" style="-webkit-tap-highlight-color: rgba(0, 0, 0, 0); opacity: 0.2;"></rect><rect x="186" y="218" width="99" height="73" r="5" rx="5" ry="5" fill="#e3f2fd" stroke="none" transform="matrix(1,0,0,1,-49.5,-36.5)" stroke-width="0" opacity="0.2" style="-webkit-tap-highlight-color: rgba(0, 0, 0, 0); opacity: 0.2;"></rect><rect x="168" y="162" width="189" height="296" r="5" rx="5" ry="5" fill="#e3f2fd" stroke="none" transform="matrix(1,0,0,1,-94.5,-148)" stroke-width="0" opacity="0.2" style="-webkit-tap-highlight-color: rgba(0, 0, 0, 0); opacity: 0.2;"></rect><rect x="388" y="139" width="287" height="27" r="5" rx="5" ry="5" fill="#e3f2fd" stroke="none" transform="matrix(1,0,0,1,-143.5,-13.5)" stroke-width="0" opacity="0.2" style="-webkit-tap-highlight-color: rgba(0, 0, 0, 0); opacity: 0.2;"></rect><rect x="203" y="298" width="52" height="204" r="5" rx="5" ry="5" fill="#e3f2fd" stroke="none" transform="matrix(1,0,0,1,-26,-102)" stroke-width="0" opacity="0.2" style="-webkit-tap-highlight-color: rgba(0, 0, 0, 0); opacity: 0.2;"></rect><rect x="128" y="317" width="314" height="320" r="5" rx="5" ry="5" fill="#e3f2fd" stroke="none" transform="matrix(1,0,0,1,-157,-160)" stroke-width="0" opacity="0.2" style="-webkit-tap-highlight-color: rgba(0, 0, 0, 0); opacity: 0.2;"></rect><rect x="175" y="322" width="79" height="161" r="5" rx="5" ry="5" fill="#e3f2fd" stroke="none" transform="matrix(1,0,0,1,-39.5,-80.5)" stroke-width="0" opacity="0.2" style="-webkit-tap-highlight-color: rgba(0, 0, 0, 0); opacity: 0.2;"></rect><rect x="265" y="233" width="98" height="207" r="5" rx="5" ry="5" fill="#e3f2fd" stroke="none" transform="matrix(1,0,0,1,-49,-103.5)" stroke-width="0" opacity="0.2" style="-webkit-tap-highlight-color: rgba(0, 0, 0, 0); opacity: 0.2;"></rect><rect x="267" y="295" width="139" height="279" r="5" rx="5" ry="5" fill="#e3f2fd" stroke="none" transform="matrix(1,0,0,1,-69.5,-139.5)" stroke-width="0" opacity="0.2" style="-webkit-tap-highlight-color: rgba(0, 0, 0, 0); opacity: 0.2;"></rect><rect x="480" y="261" width="152" height="129" r="5" rx="5" ry="5" fill="#e3f2fd" stroke="none" transform="matrix(1,0,0,1,-76,-64.5)" stroke-width="0" opacity="0.2" style="-webkit-tap-highlight-color: rgba(0, 0, 0, 0); opacity: 0.2;"></rect><rect x="431" y="130" width="72" height="245" r="5" rx="5" ry="5" fill="#e3f2fd" stroke="none" transform="matrix(1,0,0,1,-36,-122.5)" stroke-width="0" opacity="0.2" style="-webkit-tap-highlight-color: rgba(0, 0, 0, 0); opacity: 0.2;"></rect><rect x="427" y="272" width="175" height="178" r="5" rx="5" ry="5" fill="#e3f2fd" stroke="none" transform="matrix(1,0,0,1,-87.5,-89)" stroke-width="0" opacity="0.2" style="-webkit-tap-highlight-color: rgba(0, 0, 0, 0); opacity: 0.2;"></rect><rect x="381" y="173" width="283" height="54" r="5" rx="5" ry="5" fill="#e3f2fd" stroke="none" transform="matrix(1,0,0,1,-141.5,-27)" stroke-width="0" opacity="0.2" style="-webkit-tap-highlight-color: rgba(0, 0, 0, 0); opacity: 0.2;"></rect><rect x="131" y="257" width="212" height="228" r="5" rx="5" ry="5" fill="#e3f2fd" stroke="none" transform="matrix(1,0,0,1,-106,-114)" stroke-width="0" opacity="0.2" style="-webkit-tap-highlight-color: rgba(0, 0, 0, 0); opacity: 0.2;"></rect><rect x="264" y="172" width="25" height="245" r="5" rx="5" ry="5" fill="#e3f2fd" stroke="none" transform="matrix(1,0,0,1,-12.5,-122.5)" stroke-width="0" opacity="0.2" style="-webkit-tap-highlight-color: rgba(0, 0, 0, 0); opacity: 0.2;"></rect><rect x="263" y="252" width="247" height="104" r="5" rx="5" ry="5" fill="#e3f2fd" stroke="none" transform="matrix(1,0,0,1,-123.5,-52)" stroke-width="0" opacity="0.2" style="-webkit-tap-highlight-color: rgba(0, 0, 0, 0); opacity: 0.2;"></rect><rect x="176" y="167" width="84" height="306" r="5" rx="5" ry="5" fill="#e3f2fd" stroke="none" transform="matrix(1,0,0,1,-42,-153)" stroke-width="0" opacity="0.2" style="-webkit-tap-highlight-color: rgba(0, 0, 0, 0); opacity: 0.2;"></rect><rect x="481" y="343" width="285" height="70" r="5" rx="5" ry="5" fill="#e3f2fd" stroke="none" transform="matrix(1,0,0,1,-142.5,-35)" stroke-width="0" opacity="0.2" style="-webkit-tap-highlight-color: rgba(0, 0, 0, 0); opacity: 0.2;"></rect><rect x="425" y="205" width="49" height="182" r="5" rx="5" ry="5" fill="#e3f2fd" stroke="none" transform="matrix(1,0,0,1,-24.5,-91)" stroke-width="0" opacity="0.2" style="-webkit-tap-highlight-color: rgba(0, 0, 0, 0); opacity: 0.2;"></rect><rect x="491" y="229" width="29" height="21" r="5" rx="5" ry="5" fill="#e3f2fd" stroke="none" transform="matrix(1,0,0,1,-14.5,-10.5)" stroke-width="0" opacity="0.2" style="-webkit-tap-highlight-color: rgba(0, 0, 0, 0); opacity: 0.2;"></rect><rect x="292" y="250" width="104" height="221" r="5" rx="5" ry="5" fill="#e3f2fd" stroke="none" transform="matrix(1,0,0,1,-52,-110.5)" stroke-width="0" opacity="0.2" style="-webkit-tap-highlight-color: rgba(0, 0, 0, 0); opacity: 0.2;"></rect><rect x="463" y="182" width="48" height="87" r="5" rx="5" ry="5" fill="#e3f2fd" stroke="none" transform="matrix(1,0,0,1,-24,-43.5)" stroke-width="0" opacity="0.2" style="-webkit-tap-highlight-color: rgba(0, 0, 0, 0); opacity: 0.2;"></rect><rect x="480" y="218" width="285" height="71" r="5" rx="5" ry="5" fill="#e3f2fd" stroke="none" transform="matrix(1,0,0,1,-142.5,-35.5)" stroke-width="0" opacity="0.2" style="-webkit-tap-highlight-color: rgba(0, 0, 0, 0); opacity: 0.2;"></rect><rect x="243" y="183" width="260" height="24" r="5" rx="5" ry="5" fill="#e3f2fd" stroke="none" transform="matrix(1,0,0,1,-130,-12)" stroke-width="0" opacity="0.2" style="-webkit-tap-highlight-color: rgba(0, 0, 0, 0); opacity: 0.2;"></rect><rect x="478" y="284" width="57" height="202" r="5" rx="5" ry="5" fill="#e3f2fd" stroke="none" transform="matrix(1,0,0,1,-28.5,-101)" stroke-width="0" opacity="0.2" style="-webkit-tap-highlight-color: rgba(0, 0, 0, 0); opacity: 0.2;"></rect><rect x="129" y="282" width="116" height="21" r="5" rx="5" ry="5" fill="#e3f2fd" stroke="none" transform="matrix(1,0,0,1,-58,-10.5)" stroke-width="0" opacity="0.2" style="-webkit-tap-highlight-color: rgba(0, 0, 0, 0); opacity: 0.2;"></rect><rect x="320" y="344" width="158" height="317" r="5" rx="5" ry="5" fill="#e3f2fd" stroke="none" transform="matrix(1,0,0,1,-79,-158.5)" stroke-width="0" opacity="0.2" style="-webkit-tap-highlight-color: rgba(0, 0, 0, 0); opacity: 0.2;"></rect><rect x="236" y="192" width="211" height="149" r="5" rx="5" ry="5" fill="#e3f2fd" stroke="none" transform="matrix(1,0,0,1,-105.5,-74.5)" stroke-width="0" opacity="0.2" style="-webkit-tap-highlight-color: rgba(0, 0, 0, 0); opacity: 0.2;"></rect><rect x="432" y="136" width="137" height="78" r="5" rx="5" ry="5" fill="#e3f2fd" stroke="none" transform="matrix(1,0,0,1,-68.5,-39)" stroke-width="0" opacity="0.2" style="-webkit-tap-highlight-color: rgba(0, 0, 0, 0); opacity: 0.2;"></rect><rect x="256" y="315" width="65" height="91" r="5" rx="5" ry="5" fill="#e3f2fd" stroke="none" transform="matrix(1,0,0,1,-32.5,-45.5)" stroke-width="0" opacity="0.2" style="-webkit-tap-highlight-color: rgba(0, 0, 0, 0); opacity: 0.2;"></rect><rect x="330" y="225" width="30" height="21" r="5" rx="5" ry="5" fill="#e3f2fd" stroke="none" transform="matrix(1,0,0,1,-15,-10.5)" stroke-width="0" opacity="0.2" style="-webkit-tap-highlight-color: rgba(0, 0, 0, 0); opacity: 0.2;"></rect><rect x="157" y="254" width="250" height="101" r="5" rx="5" ry="5" fill="#e3f2fd" stroke="none" transform="matrix(1,0,0,1,-125,-50.5)" stroke-width="0" opacity="0.2" style="-webkit-tap-highlight-color: rgba(0, 0, 0, 0); opacity: 0.2;"></rect></svg>